<svg xmlns="http://www.w3.org/2000/svg" width="40" height="40" viewBox="0 0 40 40">
    <g fill="none">
        <path fill="#0E76A8" d="M19.953 0c11.02 0 19.954 8.934 19.954 19.953 0 11.02-8.933 19.954-19.954 19.954C8.933 39.907 0 30.973 0 19.953 0 8.934 8.933 0 19.953 0z"/>
        <path fill="#FFF" d="M11.244 27.416h3.736V14.962h-3.736v12.454zM25.8 14.53c-1.814 0-3.436.662-4.587 2.124v-1.733h-3.75v12.494h3.75v-6.757c0-1.428 1.308-2.82 2.947-2.82 1.638 0 2.043 1.392 2.043 2.785v6.79h3.736v-7.068c0-4.91-2.325-5.815-4.14-5.815zm-12.706-.813c1.033 0 1.871-.838 1.871-1.87 0-1.033-.838-1.871-1.87-1.871-1.033 0-1.871.838-1.871 1.87 0 1.033.838 1.87 1.87 1.87z"/>
    </g>
</svg>
